<?xml version="1.0" encoding="UTF-8" standalone="no"?>
<!-- Created with Inkscape (http://www.inkscape.org/) -->

<svg
   xmlns:dc="http://purl.org/dc/elements/1.1/"
   xmlns:cc="http://creativecommons.org/ns#"
   xmlns:rdf="http://www.w3.org/1999/02/22-rdf-syntax-ns#"
   xmlns:svg="http://www.w3.org/2000/svg"
   xmlns="http://www.w3.org/2000/svg"
   xmlns:sodipodi="http://sodipodi.sourceforge.net/DTD/sodipodi-0.dtd"
   xmlns:inkscape="http://www.inkscape.org/namespaces/inkscape"
   width="500"
   height="160"
   id="svg2"
   version="1.1"
   inkscape:version="0.48.2 r9819"
   sodipodi:docname="New document 1">
  <defs
     id="defs4" />
  <sodipodi:namedview
     id="base"
     pagecolor="#ffffff"
     bordercolor="#666666"
     borderopacity="1.0"
     inkscape:pageopacity="0.0"
     inkscape:pageshadow="2"
     inkscape:zoom="0.89215487"
     inkscape:cx="257.35244"
     inkscape:cy="193.17049"
     inkscape:document-units="px"
     inkscape:current-layer="layer1"
     showgrid="false"
     inkscape:window-width="862"
     inkscape:window-height="616"
     inkscape:window-x="371"
     inkscape:window-y="54"
     inkscape:window-maximized="0" />
  <metadata
     id="metadata7">
    <rdf:RDF>
      <cc:Work
         rdf:about="">
        <dc:format>image/svg+xml</dc:format>
        <dc:type
           rdf:resource="http://purl.org/dc/dcmitype/StillImage" />
        <dc:title></dc:title>
      </cc:Work>
    </rdf:RDF>
  </metadata>
  <g
     inkscape:label="Layer 1"
     inkscape:groupmode="layer"
     id="layer1"
     transform="translate(0,-892.36218)">
    <g
       id="g3013"
       transform="matrix(1.3512625,0,0,1.3512625,-103.73425,-322.39684)">
      <path
         transform="translate(2.2417633,770.9341)"
         d="m 112.54678,190.89262 c 0,10.06783 -8.16158,18.22941 -18.229405,18.22941 -10.067824,0 -18.229408,-8.16158 -18.229408,-18.22941 0,-10.06782 8.161584,-18.2294 18.229408,-18.2294 10.067825,0 18.229405,8.16158 18.229405,18.2294 z"
         sodipodi:ry="18.229408"
         sodipodi:rx="18.229408"
         sodipodi:cy="190.89262"
         sodipodi:cx="94.317375"
         id="path2985"
         style="fill:#000000;fill-opacity:1;stroke:none"
         sodipodi:type="arc" />
      <path
         transform="translate(2.2417633,770.9341)"
         d="m 187.84217,219.42561 c 0,4.37732 -3.54852,7.92583 -7.92583,7.92583 -4.37732,0 -7.92583,-3.54851 -7.92583,-7.92583 0,-4.37731 3.54851,-7.92583 7.92583,-7.92583 4.37731,0 7.92583,3.54852 7.92583,7.92583 z"
         sodipodi:ry="7.9258299"
         sodipodi:rx="7.9258299"
         sodipodi:cy="219.42561"
         sodipodi:cx="179.91634"
         id="path2987"
         style="fill:#000000;fill-opacity:1;stroke:none"
         sodipodi:type="arc" />
      <path
         transform="translate(2.2417633,770.9341)"
         d="m 244.11556,155.22639 c 0,13.13195 -10.64554,23.7775 -23.77749,23.7775 -13.13194,0 -23.77749,-10.64555 -23.77749,-23.7775 0,-13.13194 10.64555,-23.77749 23.77749,-23.77749 13.13195,0 23.77749,10.64555 23.77749,23.77749 z"
         sodipodi:ry="23.777491"
         sodipodi:rx="23.777491"
         sodipodi:cy="155.22639"
         sodipodi:cx="220.33807"
         id="path2989"
         style="fill:#000000;fill-opacity:1;stroke:none"
         sodipodi:type="arc" />
      <path
         transform="translate(2.2417633,770.9341)"
         d="m 309.10736,202.78137 c 0,4.81505 -3.90337,8.71842 -8.71841,8.71842 -4.81505,0 -8.71842,-3.90337 -8.71842,-8.71842 0,-4.81504 3.90337,-8.71841 8.71842,-8.71841 4.81504,0 8.71841,3.90337 8.71841,8.71841 z"
         sodipodi:ry="8.7184134"
         sodipodi:rx="8.7184134"
         sodipodi:cy="202.78137"
         sodipodi:cx="300.38895"
         id="path2991"
         style="fill:#000000;fill-opacity:1;stroke:none"
         sodipodi:type="arc" />
      <path
         transform="translate(2.2417633,770.9341)"
         d="m 323.37387,161.56706 c 0,9.6301 -7.80673,17.43683 -17.43683,17.43683 -9.63009,0 -17.43682,-7.80673 -17.43682,-17.43683 0,-9.63009 7.80673,-17.43682 17.43682,-17.43682 9.6301,0 17.43683,7.80673 17.43683,17.43682 z"
         sodipodi:ry="17.436827"
         sodipodi:rx="17.436827"
         sodipodi:cy="161.56706"
         sodipodi:cx="305.93704"
         id="path2993"
         style="fill:#000000;fill-opacity:1;stroke:none"
         sodipodi:type="arc" />
      <path
         transform="translate(2.2417633,770.9341)"
         d="m 331.2997,190.10005 c 0,5.69051 -4.61307,10.30358 -10.30358,10.30358 -5.69051,0 -10.30358,-4.61307 -10.30358,-10.30358 0,-5.69051 4.61307,-10.30358 10.30358,-10.30358 5.69051,0 10.30358,4.61307 10.30358,10.30358 z"
         sodipodi:ry="10.303579"
         sodipodi:rx="10.303579"
         sodipodi:cy="190.10005"
         sodipodi:cx="320.99612"
         id="path2995"
         style="fill:#000000;fill-opacity:1;stroke:none"
         sodipodi:type="arc" />
      <path
         transform="translate(2.2417633,770.9341)"
         d="m 263.93013,231.31436 c 0,4.37732 -3.54851,7.92583 -7.92583,7.92583 -4.37731,0 -7.92583,-3.54851 -7.92583,-7.92583 0,-4.37731 3.54852,-7.92583 7.92583,-7.92583 4.37732,0 7.92583,3.54852 7.92583,7.92583 z"
         sodipodi:ry="7.9258299"
         sodipodi:rx="7.9258299"
         sodipodi:cy="231.31436"
         sodipodi:cx="256.0043"
         id="path2997"
         style="fill:#000000;fill-opacity:1;stroke:none"
         sodipodi:type="arc" />
      <path
         transform="translate(2.2417633,770.9341)"
         d="m 374.89175,151.26347 c 0,7.00371 -5.67763,12.68133 -12.68133,12.68133 -7.00371,0 -12.68133,-5.67762 -12.68133,-12.68133 0,-7.0037 5.67762,-12.68132 12.68133,-12.68132 7.0037,0 12.68133,5.67762 12.68133,12.68132 z"
         sodipodi:ry="12.681328"
         sodipodi:rx="12.681328"
         sodipodi:cy="151.26347"
         sodipodi:cx="362.21042"
         id="path2999"
         style="fill:#000000;fill-opacity:1;stroke:none"
         sodipodi:type="arc" />
      <path
         transform="translate(2.2417633,770.9341)"
         d="m 305.93704,228.93661 c 0,8.3169 -6.74218,15.05908 -15.05908,15.05908 -8.3169,0 -15.05908,-6.74218 -15.05908,-15.05908 0,-8.31689 6.74218,-15.05907 15.05908,-15.05907 8.3169,0 15.05908,6.74218 15.05908,15.05907 z"
         sodipodi:ry="15.059077"
         sodipodi:rx="15.059077"
         sodipodi:cy="228.93661"
         sodipodi:cx="290.87796"
         id="path3001"
         style="fill:#000000;fill-opacity:1;stroke:none"
         sodipodi:type="arc" />
      <path
         transform="translate(2.2417633,770.9341)"
         d="m 333.67743,205.15912 c 0,2.62639 -2.1291,4.7555 -4.75549,4.7555 -2.62639,0 -4.7555,-2.12911 -4.7555,-4.7555 0,-2.62639 2.12911,-4.7555 4.7555,-4.7555 2.62639,0 4.75549,2.12911 4.75549,4.7555 z"
         sodipodi:ry="4.7554979"
         sodipodi:rx="4.7554979"
         sodipodi:cy="205.15912"
         sodipodi:cx="328.92194"
         id="path3003"
         style="fill:#000000;fill-opacity:1;stroke:none"
         sodipodi:type="arc" />
      <path
         transform="translate(2.2417633,770.9341)"
         d="m 342.39587,198.02588 c 0,2.18866 -1.77426,3.96291 -3.96292,3.96291 -2.18865,0 -3.96291,-1.77425 -3.96291,-3.96291 0,-2.18866 1.77426,-3.96292 3.96291,-3.96292 2.18866,0 3.96292,1.77426 3.96292,3.96292 z"
         sodipodi:ry="3.9629149"
         sodipodi:rx="3.9629149"
         sodipodi:cy="198.02588"
         sodipodi:cx="338.43295"
         id="path3005"
         style="fill:#000000;fill-opacity:1;stroke:none"
         sodipodi:type="arc" />
      <path
         transform="translate(2.2417633,770.9341)"
         d="m 354.28459,184.55197 c 0,1.75093 -1.41941,3.17033 -3.17033,3.17033 -1.75093,0 -3.17033,-1.4194 -3.17033,-3.17033 0,-1.75092 1.4194,-3.17033 3.17033,-3.17033 1.75092,0 3.17033,1.41941 3.17033,3.17033 z"
         sodipodi:ry="3.170332"
         sodipodi:rx="3.170332"
         sodipodi:cy="184.55197"
         sodipodi:cx="351.11426"
         id="path3007"
         style="fill:#000000;fill-opacity:1;stroke:none"
         sodipodi:type="arc" />
      <path
         transform="translate(2.2417633,770.9341)"
         d="m 373.30659,173.45581 c 0,1.75093 -1.4194,3.17033 -3.17033,3.17033 -1.75093,0 -3.17033,-1.4194 -3.17033,-3.17033 0,-1.75093 1.4194,-3.17033 3.17033,-3.17033 1.75093,0 3.17033,1.4194 3.17033,3.17033 z"
         sodipodi:ry="3.170332"
         sodipodi:rx="3.170332"
         sodipodi:cy="173.45581"
         sodipodi:cx="370.13626"
         id="path3009"
         style="fill:#000000;fill-opacity:1;stroke:none"
         sodipodi:type="arc" />
      <path
         transform="translate(2.2417633,770.9341)"
         d="m 443.0539,143.33765 c 0,5.25277 -4.25821,9.51099 -9.51099,9.51099 -5.25278,0 -9.511,-4.25822 -9.511,-9.51099 0,-5.25278 4.25822,-9.511 9.511,-9.511 5.25278,0 9.51099,4.25822 9.51099,9.511 z"
         sodipodi:ry="9.5109959"
         sodipodi:rx="9.5109959"
         sodipodi:cy="143.33765"
         sodipodi:cx="433.54291"
         id="path3011"
         style="fill:#000000;fill-opacity:1;stroke:none"
         sodipodi:type="arc" />
    </g>
  </g>
</svg>
