<?xml version="1.0" encoding="UTF-8" standalone="no"?>
<svg
   xmlns:dc="http://purl.org/dc/elements/1.1/"
   xmlns:cc="http://creativecommons.org/ns#"
   xmlns:rdf="http://www.w3.org/1999/02/22-rdf-syntax-ns#"
   xmlns:svg="http://www.w3.org/2000/svg"
   xmlns="http://www.w3.org/2000/svg"
   xmlns:sodipodi="http://sodipodi.sourceforge.net/DTD/sodipodi-0.dtd"
   xmlns:inkscape="http://www.inkscape.org/namespaces/inkscape"
   width="700"
   height="250"
   viewBox="0 0 185.20833 66.145835"
   version="1.1"
   id="svg1817"
   inkscape:version="1.0.2 (e86c8708, 2021-01-15)"
   sodipodi:docname="banner.svg"
   inkscape:export-filename="/Users/wraybowling/play/spiro-article/banner.png"
   inkscape:export-xdpi="96"
   inkscape:export-ydpi="96">
  <defs
     id="defs1811">
    <inkscape:path-effect
       effect="spiro"
       id="path-effect2403"
       is_visible="true"
       lpeversion="1" />
    <inkscape:path-effect
       effect="spiro"
       id="path-effect2399"
       is_visible="true"
       lpeversion="1" />
    <inkscape:path-effect
       effect="spiro"
       id="path-effect2395"
       is_visible="true"
       lpeversion="1" />
    <inkscape:path-effect
       effect="spiro"
       id="path-effect2391"
       is_visible="true"
       lpeversion="1" />
    <inkscape:path-effect
       effect="spiro"
       id="path-effect2386"
       is_visible="true"
       lpeversion="1" />
    <inkscape:path-effect
       effect="spiro"
       id="path-effect2382"
       is_visible="true"
       lpeversion="1" />
  </defs>
  <sodipodi:namedview
     id="base"
     pagecolor="#cc609a"
     bordercolor="#666666"
     borderopacity="1.0"
     inkscape:pageopacity="1"
     inkscape:pageshadow="2"
     inkscape:zoom="0.85681494"
     inkscape:cx="354.11274"
     inkscape:cy="115.67683"
     inkscape:document-units="px"
     inkscape:current-layer="layer1"
     inkscape:document-rotation="0"
     showgrid="false"
     units="px"
     inkscape:snap-global="false"
     inkscape:window-width="1252"
     inkscape:window-height="925"
     inkscape:window-x="0"
     inkscape:window-y="25"
     inkscape:window-maximized="0" />
  <metadata
     id="metadata1814">
    <rdf:RDF>
      <cc:Work
         rdf:about="">
        <dc:format>image/svg+xml</dc:format>
        <dc:type
           rdf:resource="http://purl.org/dc/dcmitype/StillImage" />
        <dc:title></dc:title>
      </cc:Work>
    </rdf:RDF>
  </metadata>
  <g
     inkscape:groupmode="layer"
     id="layer3"
     inkscape:label="under"
     sodipodi:insensitive="true">
    <path
       style="fill:none;stroke:#ffb380;stroke-width:0.264583;stroke-linejoin:round;stroke-miterlimit:2;stroke-dasharray:none"
       d="m 139.01733,30.89525 c 0.85895,5.766495 0.17822,11.75513 -1.95305,17.181724 -2.13128,5.426595 -5.70789,10.277881 -10.2615,13.91861 -4.55361,3.64073 -10.07308,6.062 -15.83568,6.946759 -5.76259,0.88476 -11.754211,0.230845 -17.190292,-1.876118 C 88.340727,64.959262 83.473478,61.404403 79.812401,56.867138 76.151323,52.329872 73.705369,46.821293 72.794821,41.062719 71.884274,35.304145 72.511361,29.309656 74.593967,23.864198 76.676573,18.418739 80.209608,13.535625 84.730439,9.854273 77.320811,13.662829 71.696624,20.823366 69.84396,28.945886 c -1.852665,8.122519 0.131727,17.054368 5.323258,23.570171 5.191531,6.515803 13.501096,10.453169 21.829776,10.251244 8.328676,-0.201924 16.472476,-4.57129 21.169876,-11.451852 -3e-5,7.4e-5 8e-5,1.55e-4 1.4e-4,1.1e-4 7e-5,-4.6e-5 3e-5,-1.71e-4 -5e-5,-1.75e-4 -8e-5,-4e-6 -1.3e-4,1.12e-4 -8e-5,1.69e-4 6e-5,5.7e-5 1.8e-4,1.2e-5 1.8e-4,-6.7e-5 0,-8e-5 -1e-4,-1.38e-4 -1.7e-4,-9.2e-5 -6e-5,4.6e-5 -5e-5,1.65e-4 3e-5,1.93e-4 7e-5,2.9e-5 1.6e-4,-4.5e-5 1.5e-4,-1.24e-4 -10e-6,-7.8e-5 -1.1e-4,-1.25e-4 -1.8e-4,-8.3e-5 -6e-5,2.8e-5 -7e-5,1.18e-4 -3e-5,1.63e-4 5e-5,4.5e-5 1.4e-4,3.1e-5 1.7e-4,-2.5e-5 3e-5,-5.6e-5 0,-1.37e-4 -7e-5,-1.57e-4 -6e-5,-2e-5 -1.3e-4,2.3e-5 -1.4e-4,8.6e-5 -2e-5,6.3e-5 3e-5,1.31e-4 9e-5,1.43e-4 7e-5,1.2e-5 1.3e-4,-3.4e-5 1.5e-4,-9.6e-5 10e-6,-6.3e-5 -2e-5,-1.33e-4 -8e-5,-1.56e-4 -6e-5,-2.3e-5 -1.4e-4,3e-6 -1.7e-4,5.6e-5 -0.002,-0.0065 -0.01,-0.01094 -0.0165,-0.01046 -0.007,4.85e-4 -0.0133,0.0057 -0.0154,0.01235 -0.002,0.0067 1.2e-4,0.01442 0.005,0.01919 0.005,0.0048 0.0128,0.0065 0.0195,0.0045 0.007,-0.002 0.0122,-0.0075 0.0144,-0.01413 0.002,-0.0066 0.001,-0.01422 -0.003,-0.02014 -0.004,-0.0059 -0.01,-0.01013 -0.0168,-0.01159 -0.007,-0.0015 -0.0142,-2.05e-4 -0.0203,0.0032 -0.006,0.0034 -0.0109,0.0089 -0.0138,0.01533 -0.003,0.0064 -0.004,0.0136 -0.003,0.02052 0.001,0.0069 0.004,0.01353 0.008,0.0192 0.004,0.0057 0.009,0.0104 0.0154,0.01401 0.012,0.0072 0.0263,0.0099 0.0403,0.0096 0.014,-2.95e-4 0.0277,-0.0034 0.0412,-0.0071 -0.17463,0.0014 -0.34949,0.01035 -0.52375,-0.0011 -0.17425,-0.01147 -0.34954,-0.04418 -0.5061,-0.12155 -0.15656,-0.07737 -0.29365,-0.202847 -0.36153,-0.363747 -0.0339,-0.08045 -0.0501,-0.168774 -0.0434,-0.255834 0.007,-0.08706 0.0366,-0.17267 0.0882,-0.243091 0.0516,-0.07042 0.1252,-0.12512 0.20855,-0.151141 0.0834,-0.02602 0.17612,-0.02263 0.2561,0.0124 0.08,0.03503 0.14606,0.102026 0.17704,0.183661 0.031,0.08164 0.0255,0.176978 -0.0173,0.253081 -0.0428,0.0761 -0.12295,0.130761 -0.2098,0.139783 -0.0868,0.009 -0.17784,-0.02909 -0.22996,-0.09915 -0.0521,-0.07006 -0.062,-0.16996 -0.0221,-0.247612 0.0399,-0.07765 0.12891,-0.128024 0.21581,-0.119437 C 108.59517,69.50482 86.890903,82.07826 66.047395,79.394149 45.203887,76.710038 27.188809,58.549908 25.326329,37.616981 23.463848,16.684054 38.477697,-4.6651253 58.960159,-9.3688471 79.442622,-14.072569 102.61274,-0.92226547 108.47923,19.257939 114.34572,39.438164 101.31864,63.320784 81.010764,68.728886 60.702893,74.136988 37.194552,59.322994 33.891906,38.568482 30.589261,17.81397 48.986254,-3.8046635 69.995604,-3.2904453 91.004955,-2.7762272 108.39937,20.432778 102.45911,40.591413 95.790684,62.927525 64.770021,73.803572 45.962667,60.032107 27.155314,46.260641 28.665649,12.705961 48.929064,1.1836424 69.192479,-10.338676 99.194485,6.324708 99.555443,29.632207 99.916402,52.939706 69.524503,70.421544 49.847854,57.923573 30.171483,45.425319 33.734216,9.7896226 55.680941,1.9342319 77.627666,-5.9211588 103.08078,20.342912 94.061883,41.837687 85.042982,63.332461 47.704126,62.902254 39.65189,41.026985 31.599654,19.151715 60.79379,-5.3498216 80.691536,6.7928969 c 5.6e-5,-4.23e-5 1.51e-4,1.93e-5 1.37e-4,8.81e-5 -1.4e-5,6.89e-5 -1.23e-4,8.92e-5 -1.63e-4,3.09e-5 -3.9e-5,-5.84e-5 1.9e-5,-1.511e-4 8.8e-5,-1.434e-4 7e-5,7.7e-6 1.07e-4,1.082e-4 6e-5,1.602e-4 -4.7e-5,5.2e-5 -1.49e-4,2.71e-5 -1.69e-4,-4.04e-5 -1.9e-5,-6.76e-5 5.1e-5,-1.424e-4 1.2e-4,-1.284e-4 6.9e-5,1.39e-5 1.06e-4,1.078e-4 6.6e-5,1.657e-4 -4e-5,5.78e-5 -1.39e-4,5.8e-5 -1.81e-4,1.4e-6 -5.5e-5,-6.07e-5 -3.4e-5,-1.717e-4 3.9e-5,-2.096e-4 7.3e-5,-3.79e-5 1.75e-4,6.2e-6 1.99e-4,8.46e-5 2.4e-5,7.84e-5 -3.4e-5,1.707e-4 -1.14e-4,1.86e-4 -8.1e-5,1.52e-5 -1.67e-4,-4.74e-5 -1.8e-4,-1.285e-4 -1.2e-5,-8.11e-5 4.9e-5,-1.656e-4 1.3e-4,-1.811e-4 8.1e-5,-1.55e-5 1.68e-4,3.83e-5 1.92e-4,1.166e-4 2.5e-5,7.83e-5 -1.5e-5,1.708e-4 -8.7e-5,2.093e-4 -7.3e-5,3.85e-5 -1.7e-4,2.07e-5 -2.26e-4,-3.93e-5 -0.0035,8.9e-4 -0.0075,-7.258e-4 -0.0095,-0.00376 -0.002,-0.00303 -0.0019,-0.00725 5.7e-5,-0.010291 0.002,-0.00304 0.0058,-0.00477 0.0094,-0.00441 0.0036,3.558e-4 0.0069,0.00273 0.0085,0.00599 0.0016,0.00326 0.0015,0.00728 -1.92e-4,0.010495 -0.0017,0.00322 -0.0049,0.00558 -0.0084,0.00638 -0.0035,7.998e-4 -0.0074,5.7e-5 -0.01044,-0.0019 -0.0031,-0.00196 -0.0053,-0.0051 -0.0063,-0.00858 -0.001,-0.00349 -7.9e-4,-0.0073 4.98e-4,-0.010695 0.0013,-0.0034 0.0036,-0.00637 0.0065,-0.00853 0.0029,-0.00216 0.0064,-0.00352 0.01,-0.00403 0.0036,-5.108e-4 0.0073,-1.839e-4 0.01078,8.246e-4 0.007,0.00202 0.01299,0.00671 0.01748,0.012417 0.0045,0.00571 0.0076,0.01241 0.01,0.019259 C 80.925911,6.1095737 81.247214,5.4460934 81.279043,4.7327005 81.294957,4.3760041 81.233876,4.0095678 81.057665,3.6990279 80.969559,3.543758 80.853222,3.4038653 80.712553,3.2939404 80.571883,3.1840155 80.406677,3.1045031 80.231639,3.0693875 c -0.175036,-0.035115 -0.359744,-0.02514 -0.527969,0.03462 -0.168224,0.05976 -0.319145,0.16991 -0.422314,0.315605 -0.103168,0.145695 -0.157154,0.3267548 -0.144463,0.5048271 0.01269,0.1780722 0.09325,0.3515338 0.225282,0.4716934 0.132032,0.1201596 0.314895,0.1843232 0.492581,0.167047 0.177686,-0.017276 0.346759,-0.1175009 0.442284,-0.2683181 0.09553,-0.1508172 0.113283,-0.3495349 0.04071,-0.5126409 C 80.265172,3.6191147 80.102529,3.4981814 79.924808,3.4812661 69.232271,8.5832124 61.790463,20.054181 61.857309,31.901364 c 0.06685,11.847183 7.840892,23.381317 18.929113,27.554035 11.08822,4.172718 24.752268,0.467094 31.936348,-8.953587 C 119.90685,41.081131 119.75432,26.664396 112.10666,17.616 104.45901,8.5676032 89.98124,6.0872399 79.931535,12.361275 69.881831,18.63531 65.803099,33.039543 71.362924,43.501302 76.922749,53.963062 91.466123,58.593061 101.90344,52.987493 112.34077,47.381925 116.43968,32.36718 110.03421,22.400734 103.68638,12.1782 87.785314,9.5086367 78.644591,17.334387 69.503868,25.160138 69.887915,41.603177 79.565397,48.754508 89.242878,55.90584 105.33574,51.15564 109.30397,39.795696 113.2722,28.435751 103.26081,14.55029 91.236528,15.010535 79.212237,15.470839 70.316471,30.499007 75.943176,41.135531 81.569881,51.772055 99.363564,52.641937 105.77491,42.459102 112.18625,32.276267 103.30344,16.424128 91.277447,16.837699 79.251459,17.25127 71.585885,34.123498 79.380609,43.290708 84.7315,21.635587 80.765889,-2.158086 68.680955,-20.907237"
       id="path2389"
       inkscape:path-effect="#path-effect2391"
       inkscape:original-d="M 139.01733,30.89525 C 134.56046,42.933702 89.189961,-2.181504 84.730439,9.854273 80.27091,21.890053 107.02272,37.496393 118.16687,51.315449 129.31101,65.134509 101.20055,28.193552 80.691536,6.7928969 60.182523,-14.607762 71.803014,24.56765 79.380609,43.290708 86.958198,62.013768 72.248841,0.49341703 68.680955,-20.907237"
       sodipodi:nodetypes="cssssc" />
    <path
       style="fill:none;stroke:#ffb380;stroke-width:0.264583;stroke-linejoin:round;stroke-miterlimit:2;stroke-dasharray:none"
       d="m 193.04658,34.330635 c -10.03589,2.458501 -20.82126,1.759054 -30.45555,-1.975084 -9.63428,-3.734139 -18.07379,-10.486039 -23.83134,-19.065893 -0.79405,5.352824 -1.02929,10.817668 -0.27064,16.175623 0.75865,5.357955 2.53602,10.614954 5.5443,15.113117 3.00828,4.498163 7.28556,8.20878 12.32752,10.17393 5.04197,1.965151 10.84874,2.100409 15.83525,-0.0015 -3e-5,7.1e-5 7e-5,1.55e-4 1.3e-4,1.13e-4 7e-5,-4.3e-5 4e-5,-1.67e-4 -4e-5,-1.73e-4 -8e-5,-7e-6 -1.3e-4,1.07e-4 -8e-5,1.64e-4 5e-5,5.7e-5 1.7e-4,1.5e-5 1.8e-4,-6.3e-5 0,-7.8e-5 -1e-4,-1.36e-4 -1.7e-4,-9.2e-5 -6e-5,4.4e-5 -5e-5,1.61e-4 2e-5,1.9e-4 8e-5,2.9e-5 1.7e-4,-4.4e-5 1.6e-4,-1.21e-4 -10e-6,-7.8e-5 -1.2e-4,-1.24e-4 -1.8e-4,-8.2e-5 -6e-5,2.9e-5 -7e-5,1.16e-4 -2e-5,1.59e-4 4e-5,4.2e-5 1.3e-4,2.6e-5 1.5e-4,-2.9e-5 3e-5,-5.6e-5 0,-1.33e-4 -6e-5,-1.5e-4 -6e-5,-1.8e-5 -1.3e-4,2.7e-5 -1.4e-4,8.8e-5 -1e-5,6.2e-5 4e-5,1.27e-4 1e-4,1.35e-4 6e-5,9e-6 1.2e-4,-3.8e-5 1.4e-4,-9.9e-5 10e-6,-6.2e-5 -3e-5,-1.28e-4 -9e-5,-1.47e-4 -6e-5,-2e-5 -1.3e-4,9e-6 -1.6e-4,6.3e-5 -0.002,-0.0068 -0.009,-0.01161 -0.0163,-0.01146 -0.007,1.51e-4 -0.0138,0.0051 -0.0162,0.01182 -0.002,0.0067 -5.3e-4,0.01466 0.004,0.01973 0.005,0.0051 0.0128,0.0071 0.0197,0.0054 0.007,-0.0018 0.0127,-0.0071 0.0152,-0.01379 0.002,-0.0067 0.002,-0.01441 -0.002,-0.02056 -0.004,-0.0062 -0.01,-0.01066 -0.0167,-0.01237 -0.007,-0.0017 -0.0144,-6.82e-4 -0.0207,0.0026 -0.006,0.0033 -0.0114,0.0087 -0.0145,0.01516 -0.003,0.0064 -0.004,0.01372 -0.003,0.02079 8.1e-4,0.0071 0.004,0.01387 0.007,0.01975 0.004,0.0059 0.009,0.01083 0.0153,0.01467 0.012,0.0077 0.0265,0.01076 0.0407,0.01081 0.0142,5.1e-5 0.0283,-0.0028 0.0421,-0.0062 -0.16988,0.01316 -0.33949,0.03365 -0.50988,0.03423 -0.17039,5.78e-4 -0.34323,-0.01947 -0.5008,-0.08434 -0.15756,-0.06487 -0.29936,-0.177965 -0.37596,-0.33017 -0.0383,-0.0761 -0.0597,-0.161055 -0.0588,-0.246247 9.1e-4,-0.08519 0.0245,-0.170466 0.0703,-0.242299 0.0458,-0.07183 0.11405,-0.129711 0.1936,-0.16021 0.0796,-0.0305 0.17011,-0.03287 0.25012,-0.0036 0.08,0.02929 0.14838,0.09061 0.18334,0.168303 0.035,0.07769 0.0352,0.170905 -0.002,0.247467 -0.0374,0.07656 -0.11243,0.134305 -0.19655,0.14785 -0.0841,0.01354 -0.17485,-0.01872 -0.2293,-0.08424 -0.0545,-0.06552 -0.0693,-0.162408 -0.0343,-0.240075 0.035,-0.07767 0.11933,-0.131132 0.20442,-0.126888 C 162.5667,73.750104 140.31325,86.98155 118.78798,84.426065 97.262697,81.870579 78.510246,63.28196 76.441376,41.704473 74.372507,20.126986 89.755402,-1.9927496 110.86428,-6.9205609 c 21.10888,-4.9278111 45.05478,8.6023526 51.10947,29.4160249 6.05468,20.813696 -7.4346,45.449077 -28.40008,50.955218 C 112.60818,78.956823 88.417796,63.532498 85.166365,42.101274 81.914935,20.67005 101.11582,-1.4761686 122.77848,-0.70247095 144.44113,0.07122674 162.08223,24.273936 155.63557,44.969581 148.30469,68.002778 115.87841,78.641739 96.700473,63.928592 77.522535,49.215445 79.9486,14.427256 101.2749,3.0492513 122.6012,-8.3287531 153.23146,9.8773188 152.84031,34.045831 152.44917,58.214343 120.29175,75.278799 100.37581,61.581158 80.460183,47.883228 85.604948,11.053781 108.68252,3.8641389 131.7601,-3.3255037 156.95511,25.092062 146.56582,46.917007 136.17653,68.741952 97.473194,66.367473 90.325247,43.276948 83.1773,20.186424 114.85477,-3.5415027 134.72078,10.228282 c 1.25379,2.259295 1.45485,5.006695 0.89666,7.529556 -0.55819,2.522861 -1.82771,4.842022 -3.35802,6.923982 -3.06062,4.163919 -7.19599,7.507525 -9.85849,11.9366 -1.33125,2.214538 -2.27479,4.713446 -2.35889,7.295951 -0.0841,2.582505 0.75891,5.251641 2.5842,7.080504 0.91264,0.914432 2.05665,1.604603 3.3044,1.939592 1.24775,0.334989 2.5973,0.307976 3.81576,-0.121488 1.21847,-0.429464 2.29713,-1.266539 2.97648,-2.365437 0.67936,-1.098899 0.94566,-2.455673 0.68698,-3.721449 -9.42678,4.496922 -20.95972,4.294151 -30.22259,-0.531371 C 93.924394,41.3692 87.148938,32.034152 85.431881,21.731814 83.714824,11.429475 87.096455,0.40157949 94.293597,-7.167279 101.49074,-14.736137 112.33452,-18.668363 122.7102,-17.471852"
       id="path2393"
       inkscape:path-effect="#path-effect2395"
       inkscape:original-d="m 193.04658,34.330635 c -4.45687,12.038452 -49.82737,-33.0767535 -54.28689,-21.040977 -4.45953,12.03578 22.29228,27.64212 33.43643,41.461176 11.14413,13.81906 -16.96632,-23.121897 -37.47534,-44.522552 -20.50901,-21.400659 -8.88852,17.774753 -1.31092,36.497811 7.57759,18.72306 -7.13177,-42.7972905 -10.69966,-64.197945"
       sodipodi:nodetypes="cssssc" />
    <path
       style="fill:none;stroke:#ffb380;stroke-width:0.264583;stroke-linejoin:round;stroke-miterlimit:2;stroke-dasharray:none"
       d="m 159.24833,30.251266 c -5.91094,15.588999 -18.17052,28.663 -33.34767,35.563003 C 110.7235,72.714271 92.812221,73.356873 77.179621,67.562231 61.547021,61.767588 48.382054,49.605742 41.36918,34.48041 34.356306,19.355078 33.58029,1.4490826 39.258316,-14.226251 c 0,0 0,0 0,0 0,0 0,0 0,0 0,0 0,0 0,0 0,0 0,0 0,0 0,0 0,0 0,0 0,0 0,0 0,0 0,0 0,0 0,0 -10e-7,10e-7 0,-2e-6 0,0 0,0 0,0 0,0 0,0 0,0 0,0 0,0 0,0 0,0 0,0 0,0 0,0 0,0 0,0 0,0 0,0 0,0 0,0 -3.5e-5,4.3e-5 5.1e-5,4e-6 -5e-6,2e-6 -0.0028,-2.06e-4 0.0027,-0.0014 1.94e-4,-2.1e-5 0,0 0,0 0,0 0,0 0,0 0,0 0,0 0,0 0,0 0,0 0,0 0,0 -2e-6,3e-6 -4e-6,-2e-6 0,-1e-6 3e-6,1e-6 3e-6,2e-6 -10e-7,1e-6 4.22e-4,2.96e-4 3.43e-4,-2.55e-4 3.1e-5,1.55e-4 -3.36e-4,4.19e-4 3.87e-4,-3.51e-4 0,2.2e-5 -5e-5,1.96e-4 -2.03e-4,-1.55e-4 -2.3e-5,-6.4e-5 1.81e-4,9e-5 7.2e-5,2.39e-4 -7.4e-5,9.9e-5 -2.29e-4,-2.1e-4 -2.6e-4,-5.7e-5 2.2e-5,-1.89e-4 2.82e-4,-1.31e-4 -2.48e-4,-5.3e-5 6.2e-5,-4e-5 0.06603,-0.0724 -0.0026,0.141272 -0.02824,0.0467 -0.02566,-0.09457 0.179991,-0.05702 0.142802,0.03364 -0.03719,0.09066 -0.189273,0.0629 -0.23096,-0.02578 -0.04169,-0.08868 -0.0087,-0.193114 0.02863,-0.283724 0,0 0,0 0,0 0,0 0,0 0,0 0,0 0,0 0,0 0,0 0,0 0,0 0,0 0,0 0,0 0,0 0,0 0,0 0,0 0,0 0,0 0,0 0,0 0,0 0,0 0,0 0,0 0,0 0,0 0,0 0,0 0,0 0,0 0,0 0,0 0,0 0,0 0,0 0,0 0,0 0,0 0,0 1.72e-4,6e-5 1.4e-4,1.04e-4 2.9e-5,-4e-5 -2.06e-4,-3.64e-4 -4.72e-4,1.8e-5 -5.8e-5,8.1e-5 0,0 0,0 0,0 0,0 0,0 0,0 0,0 0,0 0,0 0,0 0,0 0,0 0,-10e-7 0,0 0,0 1.8e-5,-3.8e-5 -2e-6,4e-5 0,-2e-6 4.2e-5,-9.2e-5 9.3e-5,1e-6 -7e-6,-1.3e-5 0.01442,0.0114 0.01819,0.0055 0.0018,-0.0027 0,0 0,0 0,0 0.0013,0.0013 -0.0013,-0.0012 3e-6,2e-6 3e-6,-4e-5 3.8e-5,1e-6 -3e-6,-4e-6 -0.01998,-0.0436 -0.02159,-0.04321 -0.0083,0.0029 2.6e-5,-5e-6 -2e-6,-2.9e-5 -3e-6,-2e-6 0.08162,0.172931 -0.02893,-0.196695 -0.0066,-0.0068 -0.10886,0.04856 -0.01771,-0.106817 -0.01676,0.01238 -87.241894,224.868238 -110.267174,243.476188 74.021787,87.866247 0,0 0,0 0,0 0,0 0,0 0,0 0,0 0,0 0,0 0,0 0,0 0,0 0,0 0,0 0,0 0,0 0,0 0,0 0,0 0,0 0,0 0,10e-7 0,0 0,10e-7 0,0 0,0 0,0 0,0 0,0 0,0 0,0 0,0 0,0 0,0 0,10e-7 0,0 0,0 0,0 0,0 0,5e-6 0,10e-7 0,-2e-6 1e-5,1.4e-5 -10e-6,2e-6 0,-1e-6 0.0145,0.03739 0.0388,-0.02269 0.003,-0.0054 0,0 0,0 0,0 0,0 0,0 0,0 0,0 0,0 0,0 4e-5,4.2e-5 -5e-5,0 0,2e-6 0,0 0,0 0,0 0,4e-6 0,2e-6 0,10e-7 -0.003,9.5e-4 0.003,0.001 2.5e-4,-3.6e-5 0.002,0.0118 0.004,0.01149 0.003,-4.14e-4 0,-1.1e-5 1e-5,7e-6 0,-10e-7 -10e-6,-9e-6 -10e-6,8e-6 0,4e-6 -0.0152,-0.0039 -0.001,-0.01311 -0.004,0.0023 -0.003,0.01531 0.0155,-0.01021 0.002,-0.0034 -0.004,2.01427 0.60286,2.114589 1.31695,0.231142 0.71423,-1.883447 0.0977,1.820745 0.40292,-0.170324 0.25842,-1.952603 -3.55421,-0.08459 -2.3629,1.483926 1.1913,1.568513 3.65392,0.953612 5.44368,0.131305 0,0 0,0 0,0 0,0 0,0 0,0 0,0 0,0 0,0 0,0 0,0 0,0 0,0 0,0 0,0 0,0 0,0 0,0 0,0 0,0 0,0 0,0 0,0 0,0 0,0 0,0 0,0 0,0 0,0 0,0 0,0 0,0 0,0 0,0 0,0 0,0 0,0 0,0 0,0 0,0 0,0 0,0 0,0 0,0 0,0 -1.8e-4,3.55e-4 1.6e-4,3.34e-4 -6e-5,7e-6 0,0 0,0 0,0 0,0 0,0 0,0 0,0 0,0 0,0 0,0 0,0 0,0 0,0 0,0 0,0 0,0 0,0 0,-10e-7 0,0 0,10e-7 0,10e-7 0.002,-4.62e-4 0.002,-0.0047 3.5e-4,-0.0053 0,0 0,0 0,0 0,-3e-6 -2e-5,-10e-7 -2e-5,2e-6 0,-10e-7 3e-5,-1.4e-5 3e-5,-1.7e-5 -1.5e-4,0.0049 0.0218,-0.127524 0.0168,-0.127399 0,0 0,9e-6 0,9e-6 -1.6e-4,-2.06e-4 -0.0295,-0.03359 -0.0295,-0.03384 3.6e-4,-2.5e-5 0.021,0.05847 0.0206,0.05856 0.68186,2.42476 -89.817613,-96.947285 -87.643612,-95.675237 0,0 0,0 0,0 0,0 0,0 0,0 0,0 0,0 0,0 0,0 0,0 0,0 0,0 0,0 0,0 0,0 0,0 0,0 0,0 0,0 0,0 0,0 0,0 0,0 1.5e-5,2e-5 5.1e-5,-1.5e-5 3.1e-5,-3.1e-5 -1.9e-5,-1.6e-5 -4.8e-5,2.3e-5 -2.7e-5,3.7e-5 2e-5,1.4e-5 4.8e-5,-2.4e-5 2.8e-5,-3.9e-5 -1.9e-5,-1.6e-5 -5.1e-5,1.7e-5 -3.5e-5,3.7e-5 1.6e-5,1.9e-5 5.4e-5,-4e-6 4.6e-5,-2.7e-5 -8e-6,-2.4e-5 -5.1e-5,-1.9e-5 -5.5e-5,6e-6 -3e-6,2.4e-5 3.3e-5,4.2e-5 5.1e-5,2.5e-5 1.8e-5,-1.7e-5 3e-6,-5.4e-5 -2.2e-5,-5.4e-5 0.0048,0.01118 0.02345,0.01186 0.02954,0.0013 0.0061,-0.01055 -0.003,-0.026 -0.01514,-0.02638 -0.01218,-3.79e-4 -0.02218,0.01364 -0.01838,0.02522 0.0038,0.01158 0.01938,0.01715 0.02996,0.01111 0.01059,-0.006 0.01394,-0.02161 0.0073,-0.03183 -0.0066,-0.01023 -0.02157,-0.01367 -0.03234,-0.008 -0.01077,0.0057 -0.01634,0.01939 -0.01328,0.03119 0.0031,0.0118 0.01405,0.02089 0.02614,0.02241 0.01211,0.0016 0.02472,-0.0041 0.03215,-0.0138 0.0074,-0.0097 0.0097,-0.02292 0.0067,-0.03476 -0.003,-0.01184 -0.01099,-0.02218 -0.02129,-0.02874 -0.0103,-0.0066 -0.02275,-0.0094 -0.03495,-0.0089 -0.0122,5.33e-4 -0.02414,0.0044 -0.0348,0.01034 -0.01066,0.006 -0.02008,0.01398 -0.02833,0.02299 -0.01649,0.01802 -0.02821,0.03977 -0.04068,0.06077 -2.32e-4,-1.11e-4 -4.64e-4,-2.36e-4 -6.4e-4,-4.24e-4 -8.7e-5,-9.5e-5 -1.59e-4,-2.05e-4 -2.03e-4,-3.26e-4 -4.3e-5,-1.21e-4 -5.7e-5,-2.54e-4 -3e-5,-3.8e-4 2.7e-5,-1.26e-4 9.5e-5,-2.44e-4 1.96e-4,-3.24e-4 1.01e-4,-7.9e-5 2.36e-4,-1.18e-4 3.62e-4,-9.5e-5 1.27e-4,2.2e-5 2.43e-4,1.08e-4 2.94e-4,2.26e-4 5.1e-5,1.18e-4 3.2e-5,2.66e-4 -5.3e-5,3.62e-4 -8.1e-5,9.6e-5 -2.27e-4,1.33e-4 -3.42e-4,8.3e-5 -1.15e-4,-5.1e-5 -1.86e-4,-1.89e-4 -1.53e-4,-3.11e-4 3.3e-5,-1.21e-4 1.71e-4,-2.05e-4 2.92e-4,-1.73e-4 1.22e-4,3.3e-5 1.99e-4,1.82e-4 1.49e-4,2.98e-4 -4.9e-5,1.15e-4 -2.18e-4,1.61e-4 -3.15e-4,8e-5 -9.7e-5,-8e-5 -7.9e-5,-2.61e-4 3.5e-5,-3.15e-4 1.13e-4,-5.4e-5 2.69e-4,5.3e-5 2.52e-4,1.78e-4 -1.6e-5,1.25e-4 -2.03e-4,1.85e-4 -2.86e-4,9e-5 -0.0098,0.272232 -0.427154,0.417176 -0.595504,0.203015 -0.168351,-0.214161 0.09337,-0.590318 0.349487,-0.49754 0.256123,0.09278 0.197205,0.563828 -0.07464,0.581322 -0.271847,0.01749 -0.376046,-0.462387 -0.118407,-0.550869 0.257245,-0.09077 0.462134,0.373912 0.217762,0.495144 -0.244371,0.121233 -0.478264,-0.347158 -0.23106,-0.462503 0.247205,-0.115345 0.439886,0.387709 0.176788,0.459778 -0.263099,0.07207 -0.331096,-0.4769 -0.05861,-0.464059 C 84.373525,31.982118 -47.345972,118.82397 -72.710229,47.256777 -98.074486,-24.310415 63.034698,-32.359573 43.195174,40.931639 23.35554,114.2228 -109.776,17.510117 -45.29303,-22.579192 19.189938,-62.668501 39.09692,103.6061 -32.504773,78.339449 -106.51172,49.343871 31.065327,-63.551364 43.467233,14.959557 55.86914,93.470479 -108.19531,18.892189 -40.082259,-22.075893 28.030774,-63.043454 7.1630063,117.78208 -48.79728,61.335884 -104.75757,4.8896919 78.358049,-4.5746597 27.433613,56.453433 9.1982475,60.738562 -10.742902,57.182707 -26.37321,46.858738 -42.003519,36.534768 -53.100795,19.589444 -56.316778,1.1354928 c -3.215984,-18.4539518 1.49504,-38.1541998 12.711668,-53.1568048 11.216627,-15.002605 28.779409,-25.094297 47.3893174,-27.230222"
       id="path2397"
       inkscape:path-effect="#path-effect2399"
       inkscape:original-d="M 159.24833,30.251266 C 149.39734,55.698775 49.115166,-39.668104 39.258316,-14.226251 29.401448,11.21561 88.530806,44.205108 113.16268,73.416549 137.79449,102.628 75.662106,24.540276 30.331138,-20.697547 -14.999821,-65.935378 10.68489,16.875654 27.433613,56.453433 44.182316,96.031216 11.670297,-34.013716 3.7842074,-79.251534"
       sodipodi:nodetypes="cssssc" />
    <path
       style="fill:none;stroke:#ffb380;stroke-width:0.264583;stroke-linejoin:round;stroke-miterlimit:2;stroke-dasharray:none"
       d="m 224.35034,27.704314 c 1.28629,5.14685 1.14096,10.643695 -0.41549,15.715387 -1.55646,5.071692 -4.5196,9.703774 -8.47158,13.243047 -3.95199,3.539272 -8.88154,5.975645 -14.09352,6.965549 -5.21197,0.989904 -10.69152,0.530518 -15.66592,-1.313377 -4.9744,-1.843895 -9.42948,-5.067044 -12.737,-9.214927 -3.30751,-4.147884 -5.45804,-9.20868 -6.14832,-14.46873 -0.69027,-5.260051 0.0817,-10.704362 2.20697,-15.565196 2.1253,-4.860833 5.59791,-9.124333 9.92812,-12.189274 0,0 0,0 0,0 0,0 0,0 0,0 0,0 0,0 0,0 0,0 0,0 0,0 0,0 0,0 0,0 0,0 0,0 0,0 0,0 0,0 0,0 0,0 0,0 0,0 0,0 0,0 0,0 0,0 0,0 0,0 0,0 0,0 0,0 0,0 0,0 0,0 0,0 0,0 0,0 0,0 0,0 0,0 0,0 0,0 0,0 0,-2e-6 3e-5,-1.43e-4 3e-5,-1.46e-4 0,0 0,0 0,0 0,0 0,0 0,0 0,0 0,0 0,0 0,0 0,0 0,0 0,0 0,0 0,0 0,0 0,0 0,0 0,0 0,0 0,0 -6.8e-4,-4.43e-4 -4.5e-4,7.99e-4 2e-5,1.42e-4 0,0 0,0 0,0 0,10e-7 0,0 0,0 -2e-5,9e-6 -2e-5,-3e-6 0,4e-6 3.3e-4,-1.1e-4 2e-4,-3.22e-4 -5e-5,-7.6e-5 0.001,-0.001 -0.002,-0.0012 -3.9e-4,4.6e-5 0.001,0.0016 -0.001,-0.0016 -1.7e-4,1.16e-4 0.0187,0.07774 -0.0541,0.03037 0.0255,0.03831 0.0796,0.0079 0.049,-0.1261 -0.0121,-0.177705 0,0 0,0 0,0 0,0 0,0 0,0 0,0 0,0 0,0 0,0 0,0 0,0 0,0 0,0 0,0 0,0 0,0 0,0 0,0 0,0 0,0 0,0 0,0 0,0 0,0 0,0 0,0 0,0 0,0 0,0 0,0 0,0 0,0 0,0 0,0 0,0 0,0 0,0 0,0 0,0 0,0 0,0 0,0 0,0 0,0 0,0 -1e-5,2e-5 -1e-5,2e-5 0,0 0,0 0,0 0,0 0,0 0,0 0,0 0,0 0,0 0,0 0,10e-7 0,10e-7 0,0 0,0 0,0 0,0 0,0 0,0 0,0 0,0 0,0 0,0 4.8e-4,0.0017 4.8e-4,0.0017 0,0 0,0 0,0 0,0 0,3e-6 0,3e-6 0,0 0,0 0,0 0,0 0.008,-4.2e-4 0.008,-4.2e-4 0,0 -1e-5,-5e-6 -1e-5,-5e-6 0,0 0.008,-0.0035 0.008,-0.0035 0,0 0.0171,0.03094 0.0171,0.03094 -8.5e-4,0.0012 27.91524,33.267824 27.91477,33.269174 0,0 0,0 0,0 0,0 0,0 0,0 0,0 0,0 0,0 0,0 0,0 0,0 0,0 0,0 0,0 0,0 0,0 0,0 0,0 0,0 0,0 0,0 0,-10e-7 0,-10e-7 0,0 0,0 0,0 0,0 0,0 0,0 0,0 0,0 0,0 0,0 0,-1e-6 0,-1e-6 0,0 0,0 0,0 0,0 0,-10e-7 0,-10e-7 0,0 0,0 0,0 0,0 6.1e-4,5.6e-5 6.1e-4,5.6e-5 0,0 0,0 0,0 0,0 0,0 0,0 0,0 0,0 0,0 0,0 0,0 0,0 0,0 0,0 0,0 0,0 0,0 0,0 0,0 0,0 0,0 0,4e-6 -3.7e-4,-8.61e-4 -3.7e-4,-8.57e-4 0,0 0,0 0,0 0,0 0,0 0,0 0,0 0,0 0,0 7.7e-4,5.29e-4 4.2e-4,-1.69e-4 -5.1e-4,-2.7e-4 0,-2e-6 0,4e-6 0,1e-6 0.005,0.0016 -0.002,-0.0043 4.9e-4,1.63e-4 -0.43894,0.520607 -0.59866,0.384399 -0.22459,-0.184608 0.37694,-0.548413 -0.29792,0.46993 -0.58095,-0.132345 0,0 0,0 0,0 0,0 0,0 0,0 0,0 0,0 0,0 0,0 0,0 0,0 0,0 0,0 0,0 0,0 0,0 0,0 0,0 0,0 0,0 0,0 0,0 0,0 0,0 0,0 0,0 0,0 0,0 0,0 0,0 0,0 0,0 0,0 0,0 0,0 0,0 0,0 0,0 0,0 0,0 0,0 0,0 0,0 0,0 0,0 -2e-5,-1.8e-5 -2e-5,-1.8e-5 0,0 0,0 0,0 0,0 0,0 0,0 0,0 0,0 0,0 0,0 0,0 0,0 0,0 0,0 0,0 0,0 0,0 0,0 0,0 0,0 0,0 0,0 0.001,6.73e-4 0.001,6.73e-4 0,0 0,0 0,0 0,0 0,-10e-7 0,-10e-7 0,0 1e-5,-1e-6 1e-5,-1e-6 0,0 -0.004,-1.21e-4 -0.004,-1.21e-4 0,0 1e-5,-10e-7 1e-5,-10e-7 0,0 0.01,-0.0034 0.01,-0.0034 0,0 -0.009,-0.01523 -0.009,-0.01523 0,0 -30.53116,-35.2709538 -30.53116,-35.2709538 0,0 0,0 0,0 0,0 0,0 0,0 0,0 0,0 0,0 0,0 0,0 0,0 0,0 0,0 0,0 0,0 0,0 0,0 0,0 0,0 0,0 0,-3e-7 0,-3e-7 0,0 0,0 0,0 0,0 0,0 0,0 0,0 0,0 0,0 0,0 0,-2e-7 0,-2e-7 0,0 0,0 0,0 0,0 0,2e-7 0,-10e-8 0,0 -3e-5,1.32e-5 -2e-5,-2.19e-5 0,-5.2e-6 2.7e-4,-1.133e-4 1.9e-4,-2.004e-4 4e-5,4.54e-5 0,0 0,0 0,0 0,0 0,0 0,0 0,10e-8 0,0 0,0 0,-1e-7 0,-1e-7 0,0 0,-2e-7 0,10e-8 0,0 0,-2e-7 0,0 0,0 -8e-5,1.143e-4 -1.4e-4,5.9e-5 -4e-5,-3.61e-5 1e-4,-9.58e-5 -4e-5,-1.103e-4 5e-5,1.8e-6 1e-5,2.3e-6 -2e-5,-2.5e-6 0,-4e-7 1e-5,2.1e-6 -10e-6,1.55e-5 -10e-6,2.9e-6 -1e-5,2.17e-5 -2e-5,1.87e-5 -1e-5,-4.4e-6 0,-2.32e-5 -2e-5,-4.9e-6 0,-8.8e-6 -0.0125,-0.011712 0.0181,0.00928 0.002,0.00408 -0.0163,-0.0052 0.0144,-0.027822 0.0185,-0.011182 0.004,0.016639 -0.0224,0.026454 -0.0358,0.015836 -0.0135,-0.010618 -0.0159,-0.029707 -0.0176,-0.046767 0,0 0,0 0,0 0,0 0,0 0,0 0,0 0,0 0,0 0,0 0,0 0,0 0,0 0,0 0,0 0,0 0,0 0,0 0,0 0,0 0,0 0,0 0,0 0,0 0,0 0,0 0,0 0,0 0,0 0,0 0,0 0,0 0,0 0,0 0,0 0,0 0,0 0,0 0,0 0,0 0,0 0,0 0,4.1e-6 0,-2.5e-6 0,-3e-7 1.3e-4,-2.32e-5 -5e-5,1.09e-4 1e-5,-8.8e-6 0,0 0,0 0,0 0,0 0,0 0,0 0,0 0,0 0,0 0,-4e-7 0,6e-7 0,0 0,0 0,0 0,0 0,-4e-7 0,4e-7 0,0 0,-1.4e-6 0,1.6e-6 0,0 0.006,-0.00165 0.003,0.00432 3.2e-4,-7.178e-4 0,0 0,0 0,0 0,3e-7 0,1.8e-6 0,1e-7 0,-3.1e-6 0,4e-6 0,-2e-7 0.004,-0.00813 0.008,-0.0048 -0.001,-0.0033 0,6e-7 0,2.7e-6 0,1.2e-6 -2.4e-4,-0.0051 -0.006,0.00987 -0.003,0.00585 0.005,-8.995e-4 -0.009,0.00835 -0.007,0.0041 14.11958,-4.7588356 13.63299,31.7439654 -1.05187,29.2212324 -3.28393,-17.05974 -6.26704,-34.177386 -8.94747,-51.342298"
       id="path2401"
       inkscape:path-effect="#path-effect2403"
       inkscape:original-d="m 224.35034,27.704314 c -3.727,9.627751 -41.66753,-26.4531308 -45.39674,-16.827521 -3.72923,9.625615 18.64163,22.106785 27.9608,33.158574 9.31914,11.051794 -14.18788,-18.491736 -31.33829,-35.6069038 -17.15041,-17.11518 -7.43292,14.2153528 -1.09624,29.1891178 6.33666,14.973767 -5.96386,-34.2271278 -8.94747,-51.342298"
       sodipodi:nodetypes="cssssc" />
  </g>
  <g
     inkscape:label="Layer 1"
     inkscape:groupmode="layer"
     id="layer1">
    <path
       style="fill:none;stroke:#afdde9;stroke-width:9.47528;stroke-linejoin:round;stroke-miterlimit:2;stroke-dasharray:none"
       d="m 78.740385,24.27195 c -2.155768,-2.493872 -5.171365,-4.230061 -8.410498,-4.84223 -3.239134,-0.61217 -6.680357,-0.09627 -9.597571,1.438855 -2.917215,1.535121 -5.291105,4.079294 -6.62078,7.095699 -1.329674,3.016406 -1.60633,6.48507 -0.771591,9.674106 0.762531,2.913175 2.433833,5.568296 4.670142,7.584969 2.236308,2.016673 5.024141,3.397913 7.964762,4.046601 5.88124,1.297376 12.208705,-0.394181 17.098692,-3.90989 5.33154,-3.833168 8.950247,-9.54456 12.412053,-15.12438 3.461806,-5.579821 7.026356,-11.313396 12.294346,-15.23344 5.59353,-4.162287 12.91286,-5.9254473 19.78816,-4.766794 6.8753,1.158654 13.2125,5.223266 17.13295,10.988887 3.92044,5.765621 5.37048,13.153354 3.92025,19.973112 -1.45023,6.819758 -5.78088,12.97822 -11.70814,16.649715"
       id="path2380"
       inkscape:path-effect="#path-effect2382"
       inkscape:original-d="m 78.740385,24.27195 c -0.302248,1.52516 -26.499836,3.86225 -25.40044,13.36643 1.176661,10.17213 20.00319,10.91167 29.733596,7.72168 12.397701,-4.06442 11.671509,-30.91845 24.706399,-30.35782 17.25455,0.74212 19.4222,28.56341 29.13322,42.84492"
       sodipodi:nodetypes="caaac" />
    <path
       style="fill:none;stroke:#ffe680;stroke-width:9.47528;stroke-linejoin:round;stroke-miterlimit:2;stroke-dasharray:none"
       d="M 85.718265,18.35494 C 81.243701,12.888174 74.217197,9.6042916 67.153078,9.6783797 60.08896,9.7524678 53.132876,13.182998 48.773954,18.74241 c -2.625323,3.348362 -4.321995,7.41275 -4.884898,11.630212 -0.562904,4.217462 0.0062,8.577082 1.606398,12.519573 1.600191,3.942491 4.22509,7.460185 7.530923,10.138862 3.305833,2.678678 7.284194,4.515212 11.461886,5.321893 5.455036,1.053326 11.197991,0.340493 16.341255,-1.760399 5.143264,-2.100893 9.690295,-5.557406 13.30909,-9.773001 4.311827,-5.02292 7.292802,-11.037537 11.192822,-16.386499 1.95001,-2.674481 4.14615,-5.196668 6.75359,-7.235457 2.60744,-2.038789 5.64756,-3.584478 8.90679,-4.161384 3.84026,-0.679752 7.91265,0.03936 11.28785,1.99323 3.37521,1.953872 6.02686,5.127235 7.34985,8.795934 1.32298,3.668699 1.30697,7.804059 -0.0444,11.462402 -1.35136,3.658342 -4.02751,6.811072 -7.41775,8.738744"
       id="path2384"
       inkscape:path-effect="#path-effect2386"
       inkscape:original-d="m 85.718265,18.35494 c -0.302246,1.52516 -30.079012,-9.8369097 -36.944311,0.38747 -7.918416,11.79276 2.693073,33.93445 15.714309,39.61054 9.721359,4.23763 20.818907,-5.66243 29.650345,-11.5334 10.725992,-7.13043 14.259402,-30.4826 26.853202,-27.78334 10.7374,2.30138 1.46455,16.7088 11.17556,30.99031"
       sodipodi:nodetypes="caaaac" />
  </g>
</svg>
